<svg xmlns="http://www.w3.org/2000/svg" viewBox="0 0 476.452 343.862"><path d="M147.293,95.61c-4.859-5.057-10.858-7.461-19-7.545a25.066,25.066,0,0,0-20.046,9.207c-.294.327-.544.287-.87-.04a29.068,29.068,0,0,0-21.507-9.3c-9.235.023-16.605,3.536-20.46,7.616-7.258,7.688-7.5,19.442-7.481,19.966l.159,39.842a1.591,1.591,0,0,0,1.6,1.567H70.465a1.589,1.589,0,0,0,1.6-1.567l.031-40.585c.043-3.968,3.111-13.745,13.708-13.908,14.98-.229,13.416,15.23,13.416,16.1v38.4a1.589,1.589,0,0,0,1.6,1.567h10.641a1.593,1.593,0,0,0,1.6-1.567V117.7c0-.862-.013-16.778,13.828-16.845,15.274-.073,13.208,15.408,13.208,16.27l.116,38.223a1.586,1.586,0,0,0,1.6,1.567h10.77c.879,0,1.6-.348,1.6-.776V117.2c0-.864.594-13.8-6.89-21.594" fill="#f68b1f"/><path d="M153.322,169.192H142.441a1.59,1.59,0,0,0-1.6,1.569l-.1,40.228c-.494,7.857-5.946,13.681-14.066,13.641-8.181-.04-13.518-5.062-14.251-13.938l-.06-39.931a1.586,1.586,0,0,0-1.6-1.569h-9.9a1.586,1.586,0,0,0-1.6,1.569v37.283c0,.858-.764,13.8,7.937,22.134,5.519,5.286,11.824,7.589,19.47,7.751,8.121.169,12.78-3.487,12.78-3.487.776-.407,1.471-.539,1.346,1.262,0,0,2.333,18.89-14.126,18.949-11.248.048-13.575-9.594-13.575-9.594-.376-1.262-1.02-1.322-1.9-1.322l-10.284-.045c-.879,0-1.486.464-1.359,1.367a26.048,26.048,0,0,0,17.163,21.225c8.521,3.123,22.308,2.034,29.413-5.845,4.654-5.18,7.982-10.046,7.941-22.377v-67.3c0-.863-.33-1.569-.739-1.569" fill="#f68b1f"/><path d="M198.974,167.585c-19.518,0-34.512,15.957-34.549,35.414.037,19.228,15.055,34.894,34.549,34.932,19.615-.037,34.508-15.715,34.544-34.932-.036-19.446-14.906-35.386-34.544-35.414m0,57.548c-11.108-.022-20.446-9.8-20.456-22.134.01-12.6,9.375-22.6,20.456-22.625,11.212.024,20.57,10.029,20.577,22.625-.006,12.331-9.341,22.111-20.577,22.134" fill="#f68b1f"/><path d="M289.632,169.2a1.581,1.581,0,0,0-1.6,1.564v36.77c0,.856.352,17.76-15.362,17.72-16.05-.04-14.718-16.1-14.718-16.967V170.765a1.586,1.586,0,0,0-1.6-1.564H245.707a1.586,1.586,0,0,0-1.6,1.564v37.022c-.2,9.766,2.377,16.907,6.984,22.034,4.582,5.113,13.854,8.211,21.579,8.211,7.118-.143,18.114-2.938,22.964-8.106s6.629-12.365,6.366-22.139V170.765a1.585,1.585,0,0,0-1.6-1.564Z" fill="#f68b1f"/><polygon points="191.501 249.431 191.501 263.453 175.542 263.453 175.542 249.431 168.441 249.431 168.441 285.926 175.542 285.926 175.542 270.262 191.501 270.262 191.501 285.932 198.563 285.932 198.563 249.431 191.501 249.431" fill="#3b6e8f"/><path d="M256.716,258.115V260a12.4,12.4,0,0,0-7.384-2.519,14.541,14.541,0,0,0,0,29.075,12.269,12.269,0,0,0,7.384-2.526v1.9h6.961V258.115Zm-7.384,6.132c3.8,0,7.232,3.46,7.236,7.846a7.593,7.593,0,0,1-7.236,7.713,7.425,7.425,0,0,1-7.129-7.713c.009-4.421,3.232-7.846,7.129-7.846" fill="#3b6e8f"/><rect x="269.81" y="247.006" width="7.109" height="38.928" fill="#3b6e8f"/><path d="M307.153,274.574v-3.7h-7.044v3.7a5.176,5.176,0,0,1-10.352,0l-.009-9.7H307.01v-6.759H289.756v-5.339h-7.063v21.8a11.764,11.764,0,0,0,3.49,8.582,12.445,12.445,0,0,0,8.77,3.357h.017a12.331,12.331,0,0,0,8.723-3.366,11.737,11.737,0,0,0,3.465-8.573Z" fill="#3b6e8f"/><path d="M333.441,260.925a10.894,10.894,0,0,0-8.346-3.445,11.431,11.431,0,0,0-5.836,1.558V247.008H312.15v38.926h7.109v-16.7c.038-3.009,2.09-5,5.244-5.041,3.163.084,4.682,1.8,4.8,5.133v16.6h7.056V269.479a12.613,12.613,0,0,0-2.918-8.554" fill="#3b6e8f"/><path d="M231.837,276.869c-1.7,5.81-6.835,9.741-14.073,9.741a14.945,14.945,0,0,1,0-29.891,14.034,14.034,0,0,1,14.3,11.956l-20.577,8.471a7.636,7.636,0,0,0,6.22,3.05,6.864,6.864,0,0,0,6.162-3.327Zm-8.366-11.18a7.4,7.4,0,0,0-5.767-2.548c-4.3,0-7.748,3.323-7.92,8.2Z" fill="#3b6e8f"/><path d="M179.5,121.673c.4-12.659,9.573-21.552,20.938-21.52a19.693,19.693,0,0,1,15.3,6.754l1.132,1.334-37.44,15.4Zm20.938,23.264a20.275,20.275,0,0,1-16.466-8.051l-1.006-1.321,51.7-21.208c-3.747-17.709-17.507-27.528-34.085-27.572a35.757,35.757,0,1,0,0,71.513c16.826-.038,28.706-8.646,33.236-21.595H216.472c-3.482,5.672-9.889,8.242-16.038,8.233" fill="#f68b1f"/><path d="M327.891,74.649a24.8,24.8,0,0,0,1.244-7.165,23.558,23.558,0,0,0-47.115,0,23.232,23.232,0,0,0,1.322,7.35c4.933,18.559,21.766,71.894,21.766,71.894l1.059-.045s16.785-53.435,21.724-72.033" fill="#3b6e8f"/><path d="M279.967,100.029A17.287,17.287,0,0,0,277.7,95.5a16.429,16.429,0,0,0-26.414,19.542,16.112,16.112,0,0,0,3.793,3.566c10.46,8.361,42.1,31.6,42.1,31.6l.6-.523s-12.869-37.181-17.816-49.653" fill="#b0bc22"/><path d="M265.61,138.319a10.833,10.833,0,0,0-2.841-1.435,10.305,10.305,0,1,0-6.024,19.71,10.178,10.178,0,0,0,3.238.384c8.394.31,33.148.447,33.148.447l.2-.846s-20.574-13.814-27.717-18.261" fill="#3b6e8f"/><path d="M359.4,115.819a18.624,18.624,0,0,0,3.922-3.744A17.557,17.557,0,0,0,335.1,91.192a17.2,17.2,0,0,0-2.458,4.99c-5.277,13.307-18.939,52.8-18.939,52.8l.656.477S348.2,124.772,359.4,115.819" fill="#b0bc22"/><path d="M394.412,156.626a24.916,24.916,0,0,0,7.215-.908,23.562,23.562,0,1,0-20.414-41.642c-16.307,10.146-62.334,41.793-62.334,41.793l.295,1.048s56.011.42,75.239-.291" fill="#b0bc22"/><path d="M356.756,190.583a14.9,14.9,0,0,0,3.946,1.951,14.269,14.269,0,1,0,8.106-27.362,14,14,0,0,0-4.494-.5c-11.634-.329-45.613-.024-45.613-.024l-.409.978s28.507,18.885,38.463,24.955" fill="#3b6e8f"/><path d="M336.892,238.51a23.293,23.293,0,0,0,3.131,6.107,22.231,22.231,0,0,0,35.511-26.757,21.9,21.9,0,0,0-5.174-4.79c-14.257-11.185-57.052-41.786-57.052-41.786l-1.031.588s17.768,49.818,24.615,66.637" fill="#b0bc22"/><path d="M407.295,82.63a17.831,17.831,0,1,1-17.773-17.351A17.433,17.433,0,0,1,407.295,82.63Zm-31.213,0c0,7.724,5.72,13.862,13.543,13.862,7.624,0,13.224-6.138,13.224-13.754,0-7.728-5.6-13.97-13.328-13.97S376.082,75.01,376.082,82.63Zm10.691,9.1H382.75V74.377a35,35,0,0,1,6.668-.53c3.282,0,4.756.53,6.031,1.271a4.822,4.822,0,0,1,1.689,3.808c0,1.9-1.482,3.386-3.593,4.023v.211c1.689.633,2.645,1.9,3.17,4.23.534,2.645.844,3.7,1.275,4.338h-4.342c-.526-.633-.844-2.218-1.378-4.23-.31-1.9-1.37-2.753-3.593-2.753h-1.9Zm.1-9.839h1.9c2.223,0,4.023-.741,4.023-2.537,0-1.59-1.163-2.649-3.7-2.649a9.456,9.456,0,0,0-2.223.215Z" fill="#b0bc22"/></svg>