<svg xmlns="http://www.w3.org/2000/svg" viewBox="0 0 48 48"><title>wbt-icon-color</title><circle cx="24" cy="24" r="24" fill="#544f7c"/><circle cx="24" cy="24" r="22.115" fill="#d3e8f8"/><path d="M43.144,35.067a21.961,21.961,0,0,0,2.6-7.041L34.833,12.149Z" fill="#8585ba"/><polygon points="23.856 4.92 28.83 16.858 31.539 14.733 23.856 4.92" fill="#8585ba"/><polygon points="18.753 15.728 13.134 9.452 16.34 20.837 18.753 15.728" fill="#8585ba"/><path d="M28.83,16.858,23.856,4.92,16.34,20.837,13.134,9.452,2.646,29.755a22.113,22.113,0,0,0,40.5,5.311L34.833,12.149Z" fill="#fff"/><path d="M39.082,18.326l4.209-5.136q-.348-.62-.734-1.213l-4.09,5.455Z" fill="#b3c1d6"/><path d="M37.676,16.281l3.852-5.76q-.449-.583-.936-1.135L37,15.3Z" fill="#b3c1d6"/><path d="M33.732,13.013l2.931-7.139c-.429-.3-.867-.588-1.317-.857L32,14.375Z" fill="#b3c1d6"/><path d="M30.768,13.747l2.85-9.666c-.482-.233-.975-.444-1.476-.642l-2.25,9.19Z" fill="#b3c1d6"/><path d="M28.71,11.119l1.536-8.334c-.522-.153-1.05-.289-1.587-.4l-1,7.39Z" fill="#b3c1d6"/><path d="M44.067,25.572,46.1,24.438c0-.146.011-.291.011-.438,0-.269-.011-.536-.02-.8l-2.575,1.578Z" fill="#b3c1d6"/><path d="M45.321,27.4l.567-.249c.057-.4.1-.8.137-1.2l-1.272.624Z" fill="#b3c1d6"/><path d="M26.2,7.918l.451-5.868c-.544-.065-1.092-.114-1.647-.139l-.127,4.318Z" fill="#b3c1d6"/><path d="M2.37,28.611c.081.381.173.757.273,1.131l.445-.861Z" fill="#b3c1d6"/><path d="M42.849,23.8l3.14-2.155c-.045-.425-.1-.846-.173-1.264l-3.509,2.631Z" fill="#b3c1d6"/><path d="M41.634,22.035,45.5,18.814c-.1-.43-.216-.856-.344-1.275l-4.071,3.695Z" fill="#b3c1d6"/><path d="M40.389,20.226l4.218-4.249q-.249-.639-.535-1.258L39.814,19.39Z" fill="#b3c1d6"/><path d="M36.123,14.025l3.19-5.972c-.367-.352-.743-.694-1.133-1.02l-2.814,5.892Z" fill="#b3c1d6"/><path d="M6.995,21.327,2.842,17.558c-.128.419-.24.845-.343,1.274L6.541,22.2Z" fill="#b3c1d6"/><path d="M9.212,17.038,5.431,12q-.385.594-.733,1.213L8.68,18.067Z" fill="#b3c1d6"/><path d="M6,23.259,2.182,20.4c-.068.418-.128.838-.173,1.263L5.561,24.1Z" fill="#b3c1d6"/><path d="M8.055,19.275,3.919,14.738q-.286.618-.534,1.258l4.186,4.216Z" fill="#b3c1d6"/><path d="M4.069,26.984,1.976,25.958c.035.4.08.8.137,1.2l1.521.667Z" fill="#b3c1d6"/><path d="M5.029,25.127,1.905,23.212c-.009.262-.02.523-.02.788,0,.152.008.3.011.452l2.7,1.505Z" fill="#b3c1d6"/><path d="M12,11.648l-2.2-4.6c-.39.327-.766.668-1.132,1.021L11.3,13Z" fill="#b3c1d6"/><path d="M20.6,11.818,19.317,2.387q-.8.173-1.587.406l2,10.862Z" fill="#b3c1d6"/><path d="M18.753,15.728l.058-.123L15.835,3.448c-.5.2-.993.411-1.475.644l2.958,10.032Z" fill="#b3c1d6"/><path d="M10.507,14.534,7.394,9.4q-.486.552-.935,1.135l3.448,5.155Z" fill="#b3c1d6"/><path d="M13.134,9.452l1.8,2.015-2.3-6.438c-.45.27-.887.559-1.316.859l1.619,3.945Z" fill="#b3c1d6"/><path d="M23.1,6.518l-.135-4.606c-.555.025-1.1.076-1.646.141l.545,7.084Z" fill="#b3c1d6"/><path d="M13.813,33.981a67.421,67.421,0,0,1,1.207-7.861c.665-.123,1.333-.23,2-.324q.577,3.668,1.106,7.341a61.529,61.529,0,0,1,2.212-7.689c.361-.025.723-.045,1.085-.063a58.521,58.521,0,0,0-2.983,9.336q-.909.123-1.81.291-.569-3.033-1.185-6.059a61.512,61.512,0,0,0-1.207,6.583q-.88.222-1.749.486-1.215-3.959-2.557-7.887c-1.453.886-1.815,2.049-1.321,3.285a1.6,1.6,0,0,0,.483.7c-.9.321-1.5.247-1.856-.557C6.55,30.1,8.549,27.626,11.1,26.951c.208-.056.407-.1.606-.135Q12.813,30.382,13.813,33.981Z" fill="#544f7c"/><path d="M26.146,26.478q-.435,1.327-.822,2.658l.085,0a2.251,2.251,0,0,0,2.223-1.828c.069-.682-.432-1.364-1.895-1.436-1.814-.091-3.824.931-3.714,2.932a1.513,1.513,0,0,0,.228.816c-.921.03-1.515-.226-1.577-1.038-.17-1.665,2.417-3.413,5.4-3.253,2.3.129,3.182,1.219,3.042,2.192a2.411,2.411,0,0,1-1.658,1.768,1.776,1.776,0,0,1,1.4,2.111c-.17,1.162-1.116,3.346-3.137,3.224-.528-.029-1.214-.205-1.2-.944a1.845,1.845,0,0,1,.183-.7,1.2,1.2,0,0,0,.84.467c.918.048,1.355-1.174,1.438-2.1.075-.843-.171-1.564-1.194-1.62a6.094,6.094,0,0,0-.644.01q-.658,2.3-1.183,4.619-.893-.007-1.786.028c.462-2.587,1.033-5.174,1.731-7.741C24.649,26.579,25.4,26.52,26.146,26.478Z" fill="#544f7c"/><path d="M36.444,28.376a70.064,70.064,0,0,0-3.91,7.027c-.578-.137-1.159-.262-1.743-.371a72.752,72.752,0,0,1,3.682-7.424c-.059-.013-.118-.029-.176-.042-1.567-.367-2.9-.076-3.235,1.847a1.517,1.517,0,0,0,.043.844c-.947-.164-1.431-.529-1.3-1.4.208-1.567,1.909-3.013,5.666-2.1a37.468,37.468,0,0,1,3.687,1.4,7.131,7.131,0,0,0,1.77.38c-.46.959-1.24,1.168-2.361.78A18.971,18.971,0,0,1,36.444,28.376Z" fill="#544f7c"/></svg>