<svg xmlns="http://www.w3.org/2000/svg" viewBox="0 0 569.616 330.511"><title>well-being-tracker-lockup-color</title><circle cx="196.456" cy="165.256" r="123.013" fill="#544f7c"/><circle cx="196.456" cy="165.256" r="113.35" fill="#d3e8f8"/><path d="M236.47,154.6l38.152-71.436q-2.823-2.689-5.829-5.18l-36.355,76.119Q234.453,154.343,236.47,154.6Z" fill="#b3c1d6"/><path d="M227.551,153.571l33.456-81.493q-3.3-2.29-6.764-4.348l-30.589,85.459Q225.6,153.367,227.551,153.571Z" fill="#b3c1d6"/><path d="M210.448,152.244l17.664-95.854q-4.006-1.163-8.131-2.035l-13.281,97.7C207.95,152.109,209.2,152.18,210.448,152.244Z" fill="#b3c1d6"/><path d="M245.765,155.944,286.01,95.768q-2.313-2.977-4.818-5.79l-39.644,65.329Q243.656,155.611,245.765,155.944Z" fill="#b3c1d6"/><path d="M218.911,152.778l26.472-89.8q-3.706-1.776-7.556-3.287L215.1,152.518C216.372,152.6,217.64,152.68,218.911,152.778Z" fill="#b3c1d6"/><path d="M289.929,165.819l19.177-13.163q-.362-3.269-.907-6.481l-24.035,18.02C286.12,164.73,288.047,165.27,289.929,165.819Z" fill="#b3c1d6"/><path d="M202.1,151.913q3.814-49.616,7.628-99.232-4.17-.486-8.428-.667-1.462,49.913-2.924,99.825C199.612,151.858,200.853,151.881,202.1,151.913Z" fill="#b3c1d6"/><path d="M255.579,157.621,295.1,109.389q-1.795-3.163-3.786-6.195l-40.2,53.63C252.6,157.082,254.089,157.343,255.579,157.621Z" fill="#b3c1d6"/><path d="M303.919,170.213l5.867-3.266c.008-.564.021-1.126.021-1.692,0-1.564-.04-3.118-.1-4.666L297.447,168.1Q300.777,169.153,303.919,170.213Z" fill="#b3c1d6"/><path d="M277.417,162.421l29.118-24.277q-.809-3.3-1.8-6.517L272.21,161.145Q274.85,161.77,277.417,162.421Z" fill="#b3c1d6"/><path d="M266.063,159.74l35.854-36.116c-.859-2.175-1.791-4.314-2.778-6.421l-37.864,41.528Q263.693,159.224,266.063,159.74Z" fill="#b3c1d6"/><path d="M119.38,160.636,88.016,132.172q-.978,3.211-1.768,6.5l27.911,23.271C115.895,161.488,117.637,161.062,119.38,160.636Z" fill="#b3c1d6"/><path d="M140.6,156.241l-39.359-52.5q-1.966,3.037-3.738,6.206l38.581,47.084C137.586,156.748,139.094,156.5,140.6,156.241Z" fill="#b3c1d6"/><path d="M130.354,158.161l-36.838-40.4q-1.461,3.16-2.732,6.422l34.765,35.02C127.148,158.843,128.748,158.491,130.354,158.161Z" fill="#b3c1d6"/><path d="M150.257,154.738l-38.989-64.25q-2.481,2.824-4.773,5.812L146,155.367C147.417,155.151,148.835,154.935,150.257,154.738Z" fill="#b3c1d6"/><path d="M88.019,170.094q3.155-1.137,6.329-2.21l-11.155-6.838c-.051,1.4-.086,2.8-.086,4.209,0,.708.014,1.414.027,2.119Z" fill="#b3c1d6"/><path d="M107.445,163.79,84.629,146.683q-.528,3.2-.878,6.458l18,12.358C103.648,164.915,105.542,164.336,107.445,163.79Z" fill="#b3c1d6"/><path d="M176.972,152.214,154.39,59.973q-3.835,1.534-7.528,3.334l26.279,89.137C174.417,152.363,175.693,152.28,176.972,152.214Z" fill="#b3c1d6"/><path d="M185.426,151.9q-6.619-48.692-13.238-97.385-4.113.9-8.112,2.088,8.791,47.7,17.582,95.405C182.913,151.965,184.17,151.934,185.426,151.9Z" fill="#b3c1d6"/><path d="M193.776,151.8q-1.461-49.876-2.922-99.752-4.254.207-8.421.725,3.807,49.524,7.614,99.049C191.289,151.8,192.532,151.795,193.776,151.8Z" fill="#b3c1d6"/><path d="M158.521,153.7c.317-.035.635-.062.952-.1l-35.9-75.159q-2.982,2.507-5.788,5.209L155.4,154.085C156.442,153.959,157.479,153.817,158.521,153.7Z" fill="#b3c1d6"/><path d="M168.35,152.784,138.039,68.1q-3.446,2.077-6.728,4.388l33.1,80.618C165.72,152.988,167.035,152.888,168.35,152.784Z" fill="#b3c1d6"/><path d="M277.025,164.886l-22.882-63.1L238.7,135.153l-4.707-31.837-15.113,31.342,2.946-54.968-37.137,63.392,5.451-42.986-21.8,32.58,17.689-64.656-38.47,68.722.484-31.39-21.583,53.9L133.682,98,105.67,166.9h.018C171.791,147.308,232.756,153.7,277.025,164.886Z" fill="#fff" fill-rule="evenodd"/><polygon points="233.993 103.32 238.7 135.153 247.569 115.993 233.993 103.32" fill="#544f7c"/><path d="M245.293,113.868,221.825,79.689l-2.946,54.968,15.113-31.342v0Zm-11.327-10.5.01-.066.015.014Z" fill="#8585ba"/><polygon points="184.688 143.081 203.182 111.783 190.138 100.095 189.85 102.366 184.688 143.081" fill="#544f7c"/><polygon points="203.182 111.783 205.227 108.323 186.025 68.019 168.336 132.675 169.444 131.018 190.138 100.095 203.182 111.783" fill="#8585ba"/><polygon points="147.555 136.742 160.414 113.771 148.039 105.352 147.555 136.742" fill="#544f7c"/><polygon points="126.456 159.247 145.285 112.228 133.682 97.998 126.456 159.247" fill="#8585ba"/><path d="M302.695,172.407,254.143,101.79l22.882,63.1C286.361,167.246,294.953,169.819,302.695,172.407Z" fill="#8585ba"/><path d="M311.246,277.981l-2.288-1.09c-.266-.127-27.01-12.719-67.649-18.951-37.434-5.742-94.675-7.107-154.788,18.987l-2.212.961L42.641,190.606l2.092-1.131A310,310,0,0,1,158.521,153.7a330.791,330.791,0,0,1,97.348,3.971c55.887,10.472,93.2,31.621,93.568,31.833l1.982,1.137Z" fill="#fff"/><path d="M158.954,158.684A304.826,304.826,0,0,0,49.205,192.751L86.747,271.39c60.463-25.613,117.834-24.163,155.5-18.365,34.445,5.3,59.133,15.126,66.548,18.32l36.148-78.59c-8.378-4.429-42.352-21.268-90.18-30.2A325.79,325.79,0,0,0,158.954,158.684Z" fill="#544f7c"/><path d="M334.228,199.65l-3.467-2v-4l3.467-2,3.467,2v4Z" fill="#fff"/><polygon points="336.695 197.071 336.695 194.222 334.228 192.798 331.761 194.222 331.761 197.071 334.228 198.495 336.695 197.071" fill="#8585ba"/><path d="M304.338,263.691l-3.467-2v-4l3.467-2,3.467,2v4Z" fill="#fff"/><polygon points="306.805 261.112 306.805 258.263 304.338 256.839 301.871 258.263 301.871 261.112 304.338 262.536 306.805 261.112" fill="#8585ba"/><path d="M89.658,264.3l-3.467-2v-4l3.467-2,3.467,2v4Z" fill="#fff"/><polygon points="92.124 261.724 92.124 258.876 89.658 257.451 87.191 258.876 87.191 261.724 89.658 263.149 92.124 261.724" fill="#8585ba"/><path d="M59.415,200.441l-3.467-2v-4l3.467-2,3.467,2v4Z" fill="#fff"/><polygon points="61.882 197.862 61.882 195.014 59.415 193.589 56.949 195.014 56.949 197.862 59.415 199.287 61.882 197.862" fill="#8585ba"/><path d="M143.057,188.875l3.26-19.71,4.448-.776,3.114,18.463,4.206-19.59,2.388-.327-5.7,23.894-4.635.809s-1.886-10.208-2.835-15.312c-1.234,5.5-3.348,16.52-3.348,16.52l-4.574.989s-3.083-13.585-4.636-20.375c-3.42,1.841-4.588,4.6-3.772,7.864a4.021,4.021,0,0,0,.953,1.909c-2.228.543-3.644.124-4.2-2.009-1.064-3.933,4.122-9.277,9.8-10.472.473-.1,1.365-.226,1.365-.226Z" fill="#fff"/><path d="M166.273,186.767c2.512-.3,3.888-1.8,5.323-3.7l1.1-.108c-1.572,2.983-3.946,6.077-8.122,6.611-2.954.382-5.105-.714-5.62-4.134-.535-3.46.5-11.135,7.386-11.955,2.973-.339,3.818,1,3.975,2.52.346,3.5-2.931,6.567-6.754,7.283.023.429.048.858.1,1.222C163.923,186.569,164.747,186.953,166.273,186.767Zm.516-11.705c-1.7.194-2.912,3.647-3.164,6.733a5.336,5.336,0,0,0,4.133-5.58C167.675,175.454,167.42,174.989,166.79,175.061Z" fill="#fff"/><path d="M178.679,166.463q-1.368,8.378-2.519,16.765a4.022,4.022,0,0,0-.045.987c.072.854.512,1.092,1.407,1.019,1.245-.1,2.311-1.341,2.688-2.9q.678-.047,1.357-.091c-1.517,5.09-4.562,6-6.273,6.159-1.893.168-3.488-.774-3.753-3.33a9.483,9.483,0,0,1,.054-2q.951-7.8,2.086-15.593Q176.174,166.947,178.679,166.463Z" fill="#fff"/><path d="M184.7,182.578a4.253,4.253,0,0,0-.081.893c.038.7.387,1.2,1.379,1.154a2.186,2.186,0,0,0,1.016-.232,3.357,3.357,0,0,1-3.337,3.39c-1.9.11-3.463-.91-3.652-3.5a9.472,9.472,0,0,1,.117-2q1.188-7.766,2.568-15.522,2.506-.45,5.026-.858Q186.107,174.23,184.7,182.578Z" fill="#fff"/><path d="M195.94,180.367l-6.535.162.5-2.436,6.559-.149Z" fill="#fff"/><path d="M208.3,167.192s-1.187,4.5-1.762,6.747l.2,0a5.258,5.258,0,0,0,4.995-4.794c.076-1.739-1.124-3.364-4.381-3.453-4.023-.114-8.579,2.284-8.536,7.335a4.019,4.019,0,0,0,.471,2.079c-2.185,0-3.555-.737-3.584-2.788-.1-4.221,5.834-8.21,12.373-8.015,5.068.153,7.208,2.659,7.065,5.156a5.812,5.812,0,0,1-3.583,4.7c2.809.641,3.779,2.82,3.65,5.108-.177,2.942-2.162,8.674-7.418,8.5-1.358-.042-3.125-.473-3.093-2.338a4.737,4.737,0,0,1,.449-1.766,2.973,2.973,0,0,0,2.124,1.151c2.327.066,3.286-3.072,3.381-5.4.086-2.138-.571-3.916-2.99-3.987-.267-.008-.928,0-1.526.053-.993,3.884-2.866,11.667-2.866,11.667l-4.57-.022,4.552-19.437Z" fill="#fff"/><path d="M222.607,185.7c2.519.212,4.172-.977,5.965-2.545l1.1.116c-2.148,2.6-5.105,5.15-9.3,4.829-2.969-.224-4.851-1.732-4.657-5.185.182-3.5,2.763-10.8,9.667-10.21,2.979.27,3.534,1.754,3.376,3.273-.378,3.5-4.214,5.836-8.1,5.763-.067.425-.129.85-.158,1.216C220.344,185.033,221.075,185.575,222.607,185.7Zm2.892-11.357c-1.7-.154-3.6,2.981-4.471,5.953a5.352,5.352,0,0,0,5.187-4.628C226.286,174.908,226.132,174.4,225.5,174.345Z" fill="#fff"/><path d="M236.661,174.212s-2.462,6.678-3.65,10.027a3.953,3.953,0,0,0-.246.956c-.1.85.278,1.172,1.169,1.283,1.241.154,2.54-.845,3.23-2.3q.674.091,1.347.186c-2.524,4.676-5.7,4.952-7.4,4.759-1.887-.218-3.258-1.463-3-4.02a9.507,9.507,0,0,1,.463-1.951c1.071-3.18,3.291-9.522,3.291-9.522Zm-.693-6.656a2.448,2.448,0,1,1-.6,4.827,2.444,2.444,0,1,1,.6-4.827Z" fill="#fff"/><path d="M246.42,178.336c-1.183-.2-2.275.934-3,2.369-1.246,3.119-3.659,9.378-3.659,9.378l-4.532-.632,5.521-14.682,4.782.726s-.413,1.008-.619,1.512a5.117,5.117,0,0,1,4.15-1.048c2.123.368,3.492,1.654,3.036,4.058-.468,2.433-2.682,5.79-2.981,7.478a1.13,1.13,0,0,0,1.035,1.5c1.392.259,2.165-.712,3.175-2.136q.668.13,1.336.264c-2.772,4.559-5.266,4.742-6.931,4.448-2.717-.48-3.415-2.32-3.134-4.044.332-2.055,2.4-5.524,2.741-7.452C247.508,179.077,247.208,178.466,246.42,178.336Z" fill="#fff"/><path d="M266.242,179.6l4.743,1.162s-5.513,10.815-8.142,16.268c-1.946,4.031-4.712,4.235-6.708,3.806a3.506,3.506,0,0,1-2.92-3.987c.561-2.788,3.163-3.174,6.308-3.349q.281-.6.563-1.191a5.349,5.349,0,0,1-4.111.861c-2.112-.445-3.892-2.1-3.205-5.672.762-4.048,4.758-10.02,10.519-8.736,1.874.423,2.506,1.268,2.287,2.189C265.8,180.5,266.242,179.6,266.242,179.6ZM256.01,198.02c.643.137,1.528-.265,2.319-1.938q.381-.84.764-1.679c-2.1.193-3.763.753-4.1,2.37A1.264,1.264,0,0,0,256.01,198.02Zm1.549-9.992c-.49,2.3.51,2.548,1.076,2.672a2.906,2.906,0,0,0,3.024-1.677q1.634-3.425,3.312-6.834a1.254,1.254,0,0,0-1.091-1.352C261.089,180.2,258.144,185.213,257.558,188.027Z" fill="#fff"/><path d="M130.142,210.7l-5.745,1.314,8.717,35.155-8.975,2.3-9.951-34.83-5.659,1.616-1.651-5.179,22.019-5.663Z" fill="#fff"/><path d="M161.9,242q-4.606.585-9.189,1.325-1.766-1.507-3.17-9.659l-.01-.058q-.182-1.235-.364-2.47c-.528-3.425-.8-5.175-.815-5.252-.24-1.39-1.383-1.922-3.422-1.561q1.825,9.822,3.588,19.653c-3.046.541-9.106,1.778-9.106,1.778l-9.068-40.65s8.677-1.761,13.044-2.5a15.959,15.959,0,0,1,8.086.522,5.9,5.9,0,0,1,4.11,5.088q.352,2.473.7,4.945c.448,3.207-1.339,5.63-5.264,7.387,4.283.244,6.657,2.266,7.155,5.924q.235,2.269.469,4.537Q160.017,240.9,161.9,242Zm-15.2-25.354q-.6-3.383-1.2-6.766c-.254-1.432-1.455-1.975-3.591-1.6q1.057,5.535,2.1,11.072C146.056,218.99,146.96,218.1,146.7,216.643Z" fill="#fff"/><path d="M187.576,239.9q-4.6.148-9.2.449-1.155-5.525-2.379-11.041-2.143.154-4.283.339-.324,5.638-.595,11.276-4.584.424-9.15,1,.8-21.085,2.523-42.191,6.794-.688,13.617-1.082Q183.441,219.2,187.576,239.9Zm-12.8-16.3q-1.189-6.142-2.451-12.275-.18,6.248-.31,12.494Q173.4,223.712,174.777,223.609Z" fill="#fff"/><path d="M210.049,212.99l-9.3-.281s.085-5.5.127-8.244c.011-.677-.471-1.024-1.444-1.034-1.02-.01-1.532.328-1.535,1q-.076,14.444-.15,28.887c0,.678.451,1.017,1.365,1.026.872.009,1.312-.322,1.323-1,.051-3.425.155-10.276.155-10.276l8.966.27s-.33,7.037-.495,10.556a5.455,5.455,0,0,1-3.184,4.623,13.275,13.275,0,0,1-6.722,1.634c-7.129-.059-10.777-2.381-10.947-7.388q-.4-13.393-.814-26.785c-.195-5.378,3.873-8.28,12.215-8.212,7.467.093,11.064,2.785,10.8,7.679C210.291,207.963,210.049,212.99,210.049,212.99Z" fill="#fff"/><path d="M233.289,242.273q-5.06-.69-10.143-1.191-1.009-7.846-2.206-15.686-.679,7.68-1.342,15.36c-3.087-.264-9.274-.633-9.274-.633l2.225-41.575s7.173.43,10.751.737q-.64,6.926-1.265,13.853Q224.9,206.4,228,199.723q4.97.5,9.919,1.159-4.635,8.964-8.818,18.054Q231.465,230.593,233.289,242.273Z" fill="#fff"/><path d="M251.89,245.469q-8.882-1.845-17.885-3.1,2.9-20.615,6-41.206,10.36,1.447,20.6,3.577-.586,2.608-1.166,5.217-4.875-1.013-9.783-1.87-1.034,5.539-2.051,11.081,4.258.742,8.491,1.607-.532,2.471-1.058,4.942-4.157-.849-8.341-1.578-1.309,7.2-2.586,14.405,4.456.775,8.884,1.7Q252.438,242.855,251.89,245.469Z" fill="#fff"/><path d="M274.952,251.383q-4.431-1.335-8.911-2.518c-.66-1.394-.308-4.762,1.1-10.1.006-.019.01-.038.015-.057q.349-1.2.7-2.4c.953-3.333,1.447-5.036,1.467-5.111.369-1.363-.445-2.31-2.453-2.809q-2.5,9.674-4.921,19.365-4.5-1.114-9.039-2.075,4.349-20.359,9.007-40.663,6.5,1.381,12.923,3.034a15.574,15.574,0,0,1,7.1,3.758,5.727,5.727,0,0,1,1.509,6.277q-.75,2.384-1.5,4.769c-.972,3.092-3.625,4.567-7.937,4.572,3.786,1.959,5.08,4.759,4,8.289q-.741,2.159-1.475,4.32C274.616,246.417,274.107,250.2,274.952,251.383Zm-3.2-29.249q.908-3.315,1.825-6.628c.391-1.4-.463-2.381-2.564-2.9q-1.449,5.447-2.872,10.9C270.163,224,271.363,223.559,271.755,222.135Z" fill="#fff"/><path d="M287.122,218.3l-2.047-.653,1.838-5.761-1.128-.36.58-1.815,4.348,1.388-.58,1.815-1.173-.374Z" fill="#fff"/><path d="M296.622,221.335l-2.141-.684.951-3.5.376-1.4c-.106.258-.214.5-.32.733s-.216.453-.331.665l-1.721,3.171-1.668-.533.529-3.556q.045-.311.19-1.054l.1-.455-.5,1.383-1.277,3.377-2.18-.7,3.3-7.295,2.548.813-.388,2.688c-.031.221-.071.458-.122.713s-.111.528-.181.823a13.193,13.193,0,0,1,.589-1.233l1.4-2.577,2.527.807Z" fill="#fff"/><path d="M415.6,185.091c-2.66-2.544-6.5-2.844-10.305-2.224a52.878,52.878,0,0,0,1.647-9.2c.054-.694-2.408-1.3-2.75-.644A15.936,15.936,0,0,1,399.3,178.8c-6.172,4.43-6.164-3.342-5.493-4.431a11.149,11.149,0,0,1,2.609-2.483c.588-.486-2.609-.478-2.609-.478-3.833,3.175-3.994,7.26,2.155,9.113,3.09.931,5.692-.365,7.682-2.293a47.952,47.952,0,0,1-1.012,5.212,42.943,42.943,0,0,0-5.629,1.954c-2.408,1.023-16.676,8.329-10.88,11.772,10.387,6.162,16.088-3.784,18.8-13.008,3.242-.853,6.311-.908,8.146.843C413.576,185.476,416.285,185.741,415.6,185.091ZM395.26,196c-2.356,1.816-8.806,2.313-7.178-1.476.814-1.9,3.115-3.449,4.895-4.691a46.248,46.248,0,0,1,9.21-4.794C400.888,189.293,398.779,193.286,395.26,196Zm-4.691-23.782c-.066-3.057-4.888-2.574-9.468-1.426a36.906,36.906,0,0,1,8.538-11.419c.764-.683-1.977-.818-2.5-.363a38.5,38.5,0,0,0-9.3,12.7c-2.346.735-4.224,1.457-4.737,1.652-1.348.508,1.406.823,2.059.578.352-.133,1.086-.439,2.028-.8a90.9,90.9,0,0,0-4.149,12.366c-.177.655,2.457.37,2.8-.013,1-1.1,1.428-2.633,2.275-3.829,1.115-1.58,5.071-1.935,7.012-2.647C388.046,177.944,390.629,174.949,390.568,172.22Zm-13.15,7.917a67.31,67.31,0,0,1,3.119-8.182c3.181-1,6.63-1.629,7.158.2.694,2.4-2.435,5.262-4.624,6.284C381.341,179.248,379.169,179.354,377.418,180.137Z" fill="#544f7c"/><path d="M437.471,144.542a10.348,10.348,0,0,0-14.955.636c-.113.125-.208.11-.333-.015a11.134,11.134,0,0,0-8.238-3.564,10.969,10.969,0,0,0-7.837,2.917c-2.78,2.945-2.872,7.447-2.866,7.648l.061,15.261a.61.61,0,0,0,.615.6h4.126a.609.609,0,0,0,.613-.6l.012-15.545c.016-1.52,1.192-5.265,5.251-5.327,5.738-.088,5.139,5.834,5.139,6.166v14.707a.608.608,0,0,0,.612.6h4.076a.61.61,0,0,0,.615-.6V153c0-.33,0-6.426,5.3-6.452,5.85-.028,5.059,5.9,5.059,6.232l.044,14.641a.607.607,0,0,0,.612.6H439.5c.336,0,.613-.133.613-.3V152.813c0-.331.228-5.286-2.639-8.271" fill="#f68920"/><path d="M439.781,172.727h-4.168a.609.609,0,0,0-.614.6l-.04,15.409a5.253,5.253,0,0,1-5.388,5.225c-3.134-.015-5.178-1.939-5.459-5.339l-.023-15.295a.608.608,0,0,0-.613-.6h-3.792a.607.607,0,0,0-.612.6v14.281c0,.329-.293,5.288,3.04,8.478a10.506,10.506,0,0,0,7.458,2.969,8.087,8.087,0,0,0,4.9-1.336c.3-.156.563-.206.516.483,0,0,.894,7.235-5.411,7.258a5.121,5.121,0,0,1-5.2-3.675c-.144-.483-.391-.506-.729-.506l-3.939-.017c-.337,0-.569.178-.521.524a9.977,9.977,0,0,0,6.574,8.13c3.264,1.2,8.545.779,11.266-2.239,1.783-1.984,3.057-3.848,3.042-8.571V173.328c0-.331-.126-.6-.283-.6" fill="#f68920"/><path d="M457.267,172.111A13.475,13.475,0,1,0,470.5,185.676a13.329,13.329,0,0,0-13.231-13.565m0,22.043c-4.255-.009-7.831-3.755-7.835-8.478,0-4.825,3.591-8.657,7.835-8.666,4.295.009,7.879,3.842,7.882,8.666a8.209,8.209,0,0,1-7.882,8.478" fill="#f68920"/><path d="M491.992,172.73a.605.605,0,0,0-.612.6v14.084c0,.328.135,6.8-5.884,6.787-6.148-.015-5.637-6.168-5.637-6.5V173.329a.608.608,0,0,0-.615-.6h-4.077a.607.607,0,0,0-.612.6V187.51c-.077,3.741.91,6.476,2.675,8.44s5.307,3.145,8.265,3.145c2.726-.055,6.938-1.126,8.8-3.105s2.539-4.736,2.438-8.48V173.329a.607.607,0,0,0-.613-.6Z" fill="#f68920"/><polygon points="454.404 203.461 454.404 208.832 448.292 208.832 448.292 203.461 445.572 203.461 445.572 217.44 448.292 217.44 448.292 211.44 454.404 211.44 454.404 217.442 457.11 217.442 457.11 203.461 454.404 203.461" fill="#3b6f8f"/><path d="M479.384,206.787v.723a4.748,4.748,0,0,0-2.828-.965,5.57,5.57,0,0,0,0,11.137,4.7,4.7,0,0,0,2.828-.968v.729h2.666V206.787Zm-2.828,2.349a2.988,2.988,0,0,1,0,5.959,2.991,2.991,0,0,1,0-5.959" fill="#3b6f8f"/><rect x="484.4" y="202.532" width="2.723" height="14.911" fill="#3b6f8f"/><path d="M498.7,213.091v-1.417H496v1.417a1.983,1.983,0,0,1-3.965,0l0-3.715h6.612v-2.589H492.04v-2.045h-2.706v8.349a4.506,4.506,0,0,0,1.337,3.287,4.767,4.767,0,0,0,3.359,1.286h.006a4.723,4.723,0,0,0,3.341-1.289,4.5,4.5,0,0,0,1.327-3.284Z" fill="#3b6f8f"/><path d="M508.772,207.864a4.173,4.173,0,0,0-3.2-1.32,4.379,4.379,0,0,0-2.235.6v-4.608h-2.723v14.91h2.723v-6.395a1.881,1.881,0,0,1,2.009-1.931c1.212.032,1.793.689,1.838,1.966v6.36h2.7v-6.3a4.831,4.831,0,0,0-1.118-3.276" fill="#3b6f8f"/><path d="M469.854,213.97a5.275,5.275,0,0,1-5.391,3.731,5.725,5.725,0,0,1,0-11.449,5.376,5.376,0,0,1,5.476,4.58l-7.882,3.245a2.925,2.925,0,0,0,2.383,1.168,2.629,2.629,0,0,0,2.36-1.274Zm-3.2-4.282a2.835,2.835,0,0,0-2.209-.976,3.063,3.063,0,0,0-3.034,3.139Z" fill="#3b6f8f"/><path d="M449.806,154.525c.153-4.849,3.667-8.255,8.02-8.243a7.543,7.543,0,0,1,5.86,2.587l.434.511-14.341,5.9Zm8.02,8.911a7.766,7.766,0,0,1-6.307-3.084l-.385-.506,19.8-8.123a12.817,12.817,0,0,0-13.056-10.561,13.7,13.7,0,1,0,0,27.392c6.445-.015,11-3.312,12.73-8.271h-6.641a7.066,7.066,0,0,1-6.143,3.154" fill="#f68920"/><path d="M506.646,136.514a9.5,9.5,0,0,0,.477-2.745,9.023,9.023,0,0,0-18.047,0,8.9,8.9,0,0,0,.506,2.815c1.889,7.109,8.337,27.538,8.337,27.538l.406-.017s6.429-20.467,8.321-27.591" fill="#3b6f8f"/><path d="M488.29,146.235a6.621,6.621,0,0,0-.87-1.735,6.293,6.293,0,0,0-10.117,7.485,6.171,6.171,0,0,0,1.453,1.366c4.007,3.2,16.128,12.1,16.128,12.1l.231-.2s-4.929-14.242-6.824-19.019" fill="#afbc37"/><path d="M482.791,160.9a4.149,4.149,0,0,0-1.088-.55,3.947,3.947,0,1,0-2.307,7.55,3.9,3.9,0,0,0,1.24.147c3.215.119,12.7.171,12.7.171l.075-.324s-7.88-5.291-10.617-6.994" fill="#3b6f8f"/><path d="M518.717,152.283a7.134,7.134,0,0,0,1.5-1.434,6.725,6.725,0,0,0-10.813-8,6.589,6.589,0,0,0-.941,1.911c-2.021,5.1-7.254,20.226-7.254,20.226l.251.183s12.962-9.457,17.255-12.887" fill="#afbc37"/><path d="M532.126,167.914a9.544,9.544,0,0,0,2.764-.348,9.025,9.025,0,1,0-7.819-15.95c-6.246,3.886-23.876,16.008-23.876,16.008l.113.4s21.454.161,28.819-.112" fill="#afbc37"/><path d="M517.7,180.92a5.706,5.706,0,0,0,1.512.747,5.465,5.465,0,1,0,3.105-10.481A5.363,5.363,0,0,0,520.6,171c-4.456-.126-17.471-.009-17.471-.009l-.157.375s10.919,7.234,14.733,9.558" fill="#3b6f8f"/><path d="M510.094,199.278a8.922,8.922,0,0,0,1.2,2.339,8.515,8.515,0,0,0,13.6-10.249,8.39,8.39,0,0,0-1.982-1.835c-5.461-4.284-21.853-16.005-21.853-16.005l-.395.225s6.806,19.082,9.428,25.524" fill="#afbc37"/><path d="M531.284,139.775a1.826,1.826,0,0,0,1.393-1.93c0-1.629-1.224-2.015-2.438-2.015h-2.805v6.591h1.092V139.9h1.619l1.412,2.523h1.252Zm-1.139-.715h-1.619v-2.344h1.619c.932,0,1.431.254,1.431,1.149C531.576,138.786,531.068,139.059,530.145,139.059Zm-.228-5.869a6.155,6.155,0,1,0,6.155,6.155A6.163,6.163,0,0,0,529.918,133.19Zm0,11.3a5.147,5.147,0,1,1,5.147-5.147A5.153,5.153,0,0,1,529.918,144.493Z" fill="#afbc37"/></svg>