<svg xmlns="http://www.w3.org/2000/svg" viewBox="0 0 680.636 216"><title>logo-quitnet-lockup-color</title><path d="M75.232,83.889c0-6.315,4.125-9.278,8.9-9.278s8.9,2.963,8.9,9.278v48.774L87.739,128.4l-6.7,8,5.934,4.764a6.836,6.836,0,0,1-2.838.523c-4.775,0-8.9-2.969-8.9-9.289ZM62.076,132.4c0,14.959,11.349,22.447,22.055,22.447a21.861,21.861,0,0,0,13.8-4.775l7.741,6.326,6.71-8-8.127-6.576a21.593,21.593,0,0,0,1.937-9.422V83.889c0-14.953-11.354-22.441-22.061-22.441S62.076,68.936,62.076,83.889Z" fill="#24bcb9"/><path d="M170.175,133.425a21.286,21.286,0,1,1-42.57,0v-71.2h13.158v69.92c0,6.449,3.488,9.539,8.124,9.539s8.13-3.091,8.13-9.539V62.221h13.158Z" fill="#24bcb9"/><polygon points="232.888 74.612 217.662 74.612 217.662 62.221 261.23 62.221 261.23 74.612 246.004 74.612 246.004 154.071 232.888 154.071 232.888 74.612" fill="#24bcb9"/><rect x="191.544" y="62.232" width="13.119" height="91.845" fill="#24bcb9"/><polygon points="275.25 62.221 287.891 62.221 307.758 117.56 308.02 117.56 308.02 62.221 321.172 62.221 321.172 154.071 308.792 154.071 288.669 98.86 288.408 98.86 288.408 154.071 275.25 154.071 275.25 62.221" fill="#24bcb9"/><polygon points="344.025 62.221 383.249 62.221 383.249 74.612 357.188 74.612 357.188 101.567 379.886 101.567 379.886 113.952 357.188 113.952 357.188 140.907 383.249 140.907 383.249 154.071 344.025 154.071 344.025 62.221" fill="#24bcb9"/><polygon points="407.497 74.612 392.282 74.612 392.282 62.221 435.875 62.221 435.875 74.612 420.66 74.612 420.66 154.071 407.497 154.071 407.497 74.612" fill="#24bcb9"/><path d="M447.957,68.854a1.836,1.836,0,0,0,1.4-1.94c0-1.638-1.231-2.026-2.452-2.026h-2.821v6.627h1.1V68.977h1.628l1.42,2.537h1.259Zm-1.145-.719h-1.628V65.777h1.628c.937,0,1.439.255,1.439,1.155C448.251,67.86,447.74,68.134,446.812,68.134Zm-.229-5.9a6.19,6.19,0,1,0,6.189,6.19A6.2,6.2,0,0,0,446.583,62.232Zm0,11.365a5.176,5.176,0,1,1,5.175-5.176A5.182,5.182,0,0,1,446.583,73.6Z" fill="#24bcb9"/><path d="M509.152,122.222c-2.621-2.507-6.409-2.8-10.156-2.192a52.113,52.113,0,0,0,1.623-9.063c.053-.684-2.373-1.279-2.71-.635a15.706,15.706,0,0,1-4.815,5.69c-6.083,4.366-6.075-3.294-5.414-4.367a10.988,10.988,0,0,1,2.571-2.448c.579-.479-2.571-.471-2.571-.471-3.778,3.129-3.937,7.156,2.124,8.981,3.045.917,5.61-.359,7.571-2.26a47.259,47.259,0,0,1-1,5.137,42.323,42.323,0,0,0-5.547,1.926c-2.373,1.008-16.435,8.208-10.723,11.6,10.236,6.073,15.855-3.729,18.532-12.82,3.2-.841,6.22-.895,8.028.831C507.16,122.6,509.83,122.864,509.152,122.222Zm-20.044,10.754c-2.322,1.79-8.679,2.28-7.074-1.455.8-1.869,3.07-3.4,4.824-4.623a45.579,45.579,0,0,1,9.077-4.725C494.656,126.364,492.577,130.3,489.108,132.976Zm-4.623-23.438c-.065-3.013-4.817-2.537-9.332-1.405a36.373,36.373,0,0,1,8.414-11.254c.753-.673-1.948-.806-2.461-.358a37.944,37.944,0,0,0-9.162,12.52c-2.312.724-4.163,1.436-4.669,1.628-1.328.5,1.386.811,2.029.569.347-.131,1.07-.432,2-.793a89.582,89.582,0,0,0-4.089,12.187c-.174.646,2.422.365,2.763-.013.986-1.088,1.407-2.6,2.242-3.774,1.1-1.557,5-1.907,6.911-2.609C482,115.179,484.545,112.227,484.485,109.538Zm-12.96,7.8a66.337,66.337,0,0,1,3.074-8.064c3.135-.984,6.534-1.606,7.054.2.684,2.368-2.4,5.186-4.557,6.194C475.391,116.464,473.25,116.569,471.525,117.341Z" fill="#24bcb9"/><path d="M530.71,82.26a10.2,10.2,0,0,0-14.739.627c-.111.123-.205.108-.328-.015a10.973,10.973,0,0,0-8.119-3.512,10.81,10.81,0,0,0-7.723,2.875c-2.74,2.9-2.83,7.339-2.824,7.537l.06,15.04a.6.6,0,0,0,.606.592h4.066a.6.6,0,0,0,.6-.592l.012-15.321c.016-1.5,1.174-5.189,5.175-5.25,5.655-.086,5.064,5.749,5.064,6.077v14.494a.6.6,0,0,0,.6.592h4.017a.6.6,0,0,0,.606-.592V90.6c0-.325,0-6.334,5.22-6.359,5.766-.028,4.986,5.817,4.986,6.142l.044,14.429a.6.6,0,0,0,.6.592h4.066c.332,0,.6-.131.6-.293v-14.7c0-.326.224-5.209-2.6-8.152" fill="#f68920"/><path d="M532.986,110.037h-4.108a.6.6,0,0,0-.6.592l-.039,15.186a5.177,5.177,0,0,1-5.31,5.149c-3.088-.015-5.1-1.911-5.38-5.262l-.023-15.074a.6.6,0,0,0-.6-.592H513.18a.6.6,0,0,0-.6.592V124.7c0,.324-.288,5.211,3,8.355a10.354,10.354,0,0,0,7.35,2.926,7.97,7.97,0,0,0,4.824-1.316c.293-.154.555-.2.508.476,0,0,.881,7.131-5.333,7.153a5.047,5.047,0,0,1-5.125-3.622c-.142-.476-.385-.5-.719-.5l-3.882-.017c-.332,0-.561.175-.513.516a9.833,9.833,0,0,0,6.479,8.013c3.217,1.179,8.421.768,11.1-2.206,1.757-1.955,3.013-3.792,3-8.447V110.63c0-.326-.125-.592-.279-.592" fill="#f68920"/><path d="M550.219,109.431A13.28,13.28,0,1,0,563.26,122.8a13.136,13.136,0,0,0-13.04-13.369m0,21.724c-4.193-.008-7.718-3.7-7.722-8.355,0-4.755,3.539-8.532,7.722-8.541,4.233.009,7.765,3.786,7.768,8.541a8.091,8.091,0,0,1-7.768,8.355" fill="#f68920"/><path d="M584.443,110.041a.6.6,0,0,0-.6.591v13.881c0,.323.133,6.7-5.8,6.689-6.059-.015-5.556-6.079-5.556-6.4V110.631a.6.6,0,0,0-.606-.591h-4.018a.6.6,0,0,0-.6.591v13.976c-.076,3.686.9,6.382,2.637,8.318s5.23,3.1,8.146,3.1c2.687-.054,6.838-1.109,8.669-3.06s2.5-4.668,2.4-8.357V110.631a.6.6,0,0,0-.6-.591Z" fill="#f68920"/><polygon points="547.398 140.327 547.398 145.62 541.374 145.62 541.374 140.327 538.694 140.327 538.694 154.104 541.374 154.104 541.374 148.191 547.398 148.191 547.398 154.106 550.064 154.106 550.064 140.327 547.398 140.327" fill="#3b6f8f"/><path d="M572.017,143.605v.713a4.68,4.68,0,0,0-2.787-.951,5.489,5.489,0,0,0,0,10.976,4.631,4.631,0,0,0,2.787-.954v.718h2.628v-10.5Zm-2.787,2.315a2.944,2.944,0,0,1,0,5.873,2.948,2.948,0,0,1,0-5.873" fill="#3b6f8f"/><rect x="576.96" y="139.412" width="2.684" height="14.695" fill="#3b6f8f"/><path d="M591.057,149.819v-1.4H588.4v1.4a1.954,1.954,0,0,1-3.908,0l0-3.662H591v-2.551h-6.513V141.59h-2.666v8.229a4.441,4.441,0,0,0,1.318,3.24,4.7,4.7,0,0,0,3.311,1.267h.006a4.655,4.655,0,0,0,3.293-1.271,4.431,4.431,0,0,0,1.308-3.236Z" fill="#3b6f8f"/><path d="M600.98,144.666a4.112,4.112,0,0,0-3.15-1.3,4.315,4.315,0,0,0-2.2.588v-4.541h-2.684v14.694h2.684v-6.3a1.854,1.854,0,0,1,1.98-1.9c1.194.032,1.767.679,1.812,1.938v6.268h2.663V147.9a4.761,4.761,0,0,0-1.1-3.229" fill="#3b6f8f"/><path d="M562.625,150.685a5.2,5.2,0,0,1-5.313,3.677,5.642,5.642,0,0,1,0-11.284,5.3,5.3,0,0,1,5.4,4.513l-7.768,3.2a2.882,2.882,0,0,0,2.348,1.151,2.591,2.591,0,0,0,2.326-1.256Zm-3.158-4.22a2.794,2.794,0,0,0-2.177-.962,3.018,3.018,0,0,0-2.99,3.094Z" fill="#3b6f8f"/><path d="M542.867,92.1c.151-4.779,3.614-8.136,7.9-8.124a7.434,7.434,0,0,1,5.775,2.55l.427.5L542.84,92.843Zm7.9,8.782a7.654,7.654,0,0,1-6.216-3.039l-.38-.5,19.515-8.006a12.632,12.632,0,0,0-12.867-10.408,13.5,13.5,0,1,0,0,27c6.352-.014,10.837-3.264,12.546-8.152h-6.545a6.964,6.964,0,0,1-6.054,3.108" fill="#f68920"/><path d="M598.885,74.348a9.361,9.361,0,0,0,.47-2.7,8.893,8.893,0,0,0-17.786,0,8.77,8.77,0,0,0,.5,2.774c1.862,7.006,8.216,27.14,8.216,27.14l.4-.017s6.336-20.171,8.2-27.192" fill="#3b6f8f"/><path d="M580.794,83.929a6.526,6.526,0,0,0-.857-1.71,6.2,6.2,0,0,0-9.971,7.377,6.082,6.082,0,0,0,1.432,1.346c3.949,3.156,15.894,11.928,15.894,11.928l.228-.2s-4.858-14.036-6.726-18.744" fill="#afbc37"/><path d="M575.374,98.383a4.089,4.089,0,0,0-1.072-.542,3.89,3.89,0,1,0-2.274,7.441,3.842,3.842,0,0,0,1.222.145c3.169.117,12.513.169,12.513.169l.074-.319s-7.767-5.215-10.463-6.893" fill="#3b6f8f"/><path d="M610.781,89.889a7.031,7.031,0,0,0,1.481-1.413A6.628,6.628,0,0,0,601.6,80.593a6.494,6.494,0,0,0-.928,1.884c-1.992,5.023-7.149,19.933-7.149,19.933l.248.18s12.775-9.321,17.006-12.7" fill="#afbc37"/><path d="M624,105.294a9.406,9.406,0,0,0,2.724-.343,8.894,8.894,0,1,0-7.706-15.72c-6.156,3.83-23.531,15.777-23.531,15.777l.111.4s21.144.159,28.4-.11" fill="#afbc37"/><path d="M609.782,118.112a5.624,5.624,0,0,0,1.49.737,5.386,5.386,0,1,0,3.06-10.329,5.285,5.285,0,0,0-1.7-.188c-4.392-.124-17.219-.009-17.219-.009l-.154.369s10.761,7.129,14.52,9.42" fill="#3b6f8f"/><path d="M602.283,136.2a8.793,8.793,0,0,0,1.182,2.306,8.392,8.392,0,0,0,13.405-10.1,8.269,8.269,0,0,0-1.953-1.808c-5.382-4.222-21.537-15.774-21.537-15.774l-.389.222s6.707,18.806,9.292,25.155" fill="#afbc37"/><path d="M623.167,77.562a1.8,1.8,0,0,0,1.373-1.9c0-1.606-1.206-1.986-2.4-1.986h-2.765v6.5h1.076V77.682h1.6l1.391,2.487h1.234Zm-1.122-.705h-1.6v-2.31h1.6c.919,0,1.41.25,1.41,1.132C623.455,76.587,622.953,76.856,622.044,76.856Zm-.224-5.784a6.067,6.067,0,1,0,6.066,6.067A6.073,6.073,0,0,0,621.82,71.072Zm0,11.139a5.073,5.073,0,1,1,5.072-5.073A5.079,5.079,0,0,1,621.82,82.211Z" fill="#afbc37"/></svg>