<svg xmlns="http://www.w3.org/2000/svg" viewBox="0 0 316.749 97.095"><path d="M57.756,65.194c-.415.77-1.824,3.264-3.408,3.264a2.914,2.914,0,0,1-2.5-2.016L46.379,53.385l-5.52,10.129c-.624,1.152-2.065,3.648-3.5,3.648s-2.094-1.536-2.4-2.64L28.233,40.28a2.4,2.4,0,0,1,2.4-2.976,2.566,2.566,0,0,1,2.352,2.112l5.233,19.839,6.1-11.534a3.022,3.022,0,0,1,2.3-1.824,2.771,2.771,0,0,1,2.533,1.752l5.831,12.939L71.031,30.5a2.769,2.769,0,0,1,2.374-1.354,2.16,2.16,0,0,1,1.837,2.937Z" fill="#bf311a"/><path d="M95.7,70.378a2.4,2.4,0,0,1-2.209-1.68L89.941,55.065H79.572l-6.241,18.29a2.278,2.278,0,1,1-4.32-1.44l5.76-16.9H71.507c-2.112,0-4.464-.24-4.464-2.3a2.192,2.192,0,0,1,2.3-2.209h6.96l7.2-20.833a2.218,2.218,0,0,1,2.112-1.632,2.3,2.3,0,0,1,2.3,1.68s9.584,36.246,10.033,37.875A2.332,2.332,0,0,1,95.7,70.378ZM85.38,38.12,81.108,50.6h7.632Z" fill="#bf311a"/><path d="M121.34,62.314s-16.563,3.726-18.722,4.177a2.263,2.263,0,0,1-2.928-2.256c0-2.072,3.36-2.544,4.944-2.88,0,0-.144-30.38-.144-32.451a2.319,2.319,0,0,1,2.352-2.352c1.584,0,2.352,1.056,2.352,4.224l.048,29.571S119.565,58,120.86,57.753s2.256,1.392,2.256,2.4A2.161,2.161,0,0,1,121.34,62.314Z" fill="#bf311a"/><path d="M158.659,65.9c-3.664-1.86-29.008-14.824-29.008-14.824L129.7,64.57a2.3,2.3,0,0,1-2.3,2.3c-1.632,0-2.442-1.344-2.442-3.84l.138-14.306s-2.4-1.2-2.4-2.688c0-1.44,1.441-2.16,2.5-2.784v-15.6a2.32,2.32,0,0,1,2.352-2.352c1.632,0,2.4,1.536,2.4,3.937l-.144,10.9,17.329-11.665a2.171,2.171,0,0,1,3.22.565,2.564,2.564,0,0,1-.584,3.166L129.747,45.752s28.79,14.93,30.928,16.024a2.145,2.145,0,0,1,1.344,2.016C162.019,64.849,160.594,66.874,158.659,65.9Z" fill="#bf311a"/><path d="M188.171,69.658a2.4,2.4,0,0,1-2.209-1.68l-3.908-14.83-9.874,1.916-5.265,15.379a2.261,2.261,0,0,1-2.112,1.632,2.182,2.182,0,0,1-2.181-2.677l4.546-13.762-2.741.492c-1.687.283-3.129.429-3.443-1.611-.163-1.055.431-1.914,2.079-2.243l5.579-1,7.475-21.6a2.219,2.219,0,0,1,2.112-1.632,2.3,2.3,0,0,1,2.3,1.68l9.845,36.965A2.287,2.287,0,0,1,188.171,69.658ZM177.987,38.12,173.715,50.6l7.222-1.526Z" fill="#bf311a"/><path d="M210.346,58.666c-5.951,5.184-12.352,9.708-13.622,10.744a2.641,2.641,0,0,1-3.576-.5,2.728,2.728,0,0,1,.537-3.181s3.749-2.979,4.566-3.555V37.352c-1.441,0-3.266.144-5.473.144a2.276,2.276,0,0,1-2.3-2.256c0-1.68,1.057-2.928,4.416-2.928H200.7c10.514,0,21.362,1.824,21.362,10.081C222.06,47.384,216.107,53.577,210.346,58.666ZM202.81,37.3V58.522C209.723,52.9,217.259,45.9,217.259,41.96h.048C217.307,37.544,208.09,37.3,202.81,37.3Z" fill="#bf311a"/><path d="M228.413,37.528c2.343-2.342,11.066-9.165,19.96-.272,6.653,6.653,5.566,17.787-.78,24.134-1.562,1.562-5.873,4.311-7.095,3.089a1.807,1.807,0,0,1,.033-2.817,42.573,42.573,0,0,0,3.564-2.885c4.819-4.82,5.5-13.578.441-18.636-3.53-3.53-8.962-3.055-12.764.747-3.055,3.055-3.394,7.807-.543,10.658,2.139,2.139,5.5,2.919,7.469.95a4.2,4.2,0,0,0,.169-5.736c-1.324-1.324-4,1.63-6.212-.577-.883-.883-.136-2.308.476-2.919a6.845,6.845,0,0,1,9.538-.034c3.666,3.665,2.613,9.4-.306,12.321-4.379,4.379-10.692,3.157-14.63-.78C223.017,50.054,223.865,42.077,228.413,37.528Z" fill="#bf311a"/><path d="M256.177,54.966c4.576,5.4,11.089,9.208,18.259,6.954,7.349-2.311,11.031-11.269,9.8-18.306-1.085-6.209-8.506-13.044-14.7-13.081-7.569,0-12.807,5.57-12.807,12.94-.141,6.832,4.795,12.548,10.6,12.576,3.832,0,9.895-3.066,9.9-8.8.018-3.866-2.564-7.938-6.552-8.36-4.927-.52-8.539,4.66-4.771,8.493,1.81,1.842,4.726-1.117,2.828-2.828a1,1,0,0,1,.594-1.707c2.977,0,4.414,2.771,3.595,5.862-.916,2.143-3.5,3.394-5.933,3.394a6.1,6.1,0,0,1-5.3-3.59c-2.517-4.824-.418-14.125,7.4-14.125,3.276,0,5.858,2.533,7.784,4.413a11.188,11.188,0,0,1,3.585,7.887c0,4.748-3.718,11.685-9.634,11.685-5.5,0-8.7-2.544-11.829-6.24-1.67-1.971-4.484.873-2.828,2.828Z" fill="#bf311a"/><path d="M290.537,31.2c.9,0,1.814.287,1.814,1.5a1.358,1.358,0,0,1-1.037,1.436l1.135,1.968h-.932l-1.05-1.877h-1.2V36.1h-.812V31.2Zm-1.274,2.4h1.2c.686,0,1.064-.2,1.064-.889,0-.666-.371-.854-1.064-.854h-1.2Z" fill="#bf311a"/><path d="M290.3,38.4a4.579,4.579,0,1,1,4.579-4.579A4.584,4.584,0,0,1,290.3,38.4Zm0-8.408a3.829,3.829,0,1,0,3.829,3.829A3.833,3.833,0,0,0,290.3,29.987Z" fill="#bf311a"/></svg>